<?xml version="1.0" encoding="utf-8"?>
<!-- Generator: Adobe Illustrator 15.1.0, SVG Export Plug-In . SVG Version: 6.00 Build 0)  -->
<!DOCTYPE svg PUBLIC "-//W3C//DTD SVG 1.1//EN" "http://www.w3.org/Graphics/SVG/1.1/DTD/svg11.dtd">
<svg version="1.1" id="Ebene_1" xmlns="http://www.w3.org/2000/svg" xmlns:xlink="http://www.w3.org/1999/xlink" x="0px" y="0px"
	 width="343.194px" height="88.031px" viewBox="0 0 343.194 88.031" enable-background="new 0 0 343.194 88.031"
	 xml:space="preserve">
<g>
	<path fill="#FFFFFF" d="M23.392,2.238c0,0-21.153,0-21.153,21.153v41.25c0,0,0,21.15,21.153,21.15h295.035
		c0,0,21.154,0,21.154-21.15v-41.25c0,0,0-21.153-21.154-21.153H23.392L23.392,2.238z"/>
	<g>
		<defs>
			<polygon id="SVGID_1_" points="0,0 343.194,0 343.194,88.031 0,88.031 0,0 			"/>
		</defs>
		<clipPath id="SVGID_2_">
			<use xlink:href="#SVGID_1_"  overflow="visible"/>
		</clipPath>
		<path clip-path="url(#SVGID_2_)" fill="none" stroke="#F29400" stroke-width="6.8262" d="M23.392,2.238
			c0,0-21.153,0-21.153,21.153v41.25c0,0,0,21.15,21.153,21.15h295.035c0,0,21.154,0,21.154-21.15v-41.25
			c0,0,0-21.153-21.154-21.153H23.392L23.392,2.238z"/>
	</g>
	<path fill="#F29400" d="M66.007,21.806h-45.79v45.789h45.79V21.806L66.007,21.806z M31.387,55.868V34.089h23.453v21.779H50.63
		c-0.05,4.271-3.436,7.722-7.604,7.722c-4.169,0-7.556-3.45-7.604-7.722H31.387L31.387,55.868z"/>
	<path fill="#F29400" d="M43.025,48.011c-4.2,0-7.606,3.501-7.606,7.817c0,0.03,0.002,0.064,0.002,0.095H50.63
		c0-0.03,0-0.064,0-0.095C50.63,51.512,47.225,48.011,43.025,48.011"/>
	<path fill="none" stroke="#000000" stroke-width="0.4671" stroke-miterlimit="11.258" d="M104.323,56.756V42.939H93.52v4.649h5.173
		v9.363c0,3.799-1.9,6.483-5.173,6.483c-1.833,0-3.079-0.722-3.865-1.769c-1.636-2.225-1.898-5.958-1.898-17.024
		c0-11.067,0.263-14.8,1.898-17.026c0.786-1.048,2.031-1.77,3.865-1.77c4.322,0,5.106,3.865,5.173,7.008h5.565
		c-0.066-3.732-1.047-7.008-3.209-9.168c-1.766-1.768-4.256-2.88-7.529-2.88c-3.668,0-6.222,1.441-7.991,3.405
		c-3.01,3.338-3.404,7.531-3.404,20.431c0,12.897,0.394,17.091,3.404,20.431c1.769,1.964,4.323,3.405,7.991,3.405
		C99.608,68.478,104.257,64.548,104.323,56.756L104.323,56.756z M124.098,50.992c0,6.092-0.063,9.562-1.309,11.265
		c-0.656,0.916-1.768,1.441-3.013,1.441c-1.243,0-2.292-0.525-2.945-1.441c-1.246-1.702-1.377-5.173-1.377-11.265
		c0-6.089,0.131-9.561,1.377-11.263c0.653-0.916,1.702-1.44,2.945-1.44c1.245,0,2.357,0.524,3.013,1.44
		C124.034,41.432,124.098,44.903,124.098,50.992L124.098,50.992z M129.402,50.992c0-6.875-0.327-11.657-2.423-14.34
		c-1.702-2.293-4.19-3.143-7.203-3.143c-3.011,0-5.434,0.85-7.137,3.143c-2.096,2.683-2.487,7.464-2.487,14.34
		c0,6.875,0.392,11.658,2.487,14.342c1.703,2.291,4.126,3.144,7.137,3.144c3.013,0,5.501-0.853,7.203-3.144
		C129.075,62.65,129.402,57.867,129.402,50.992L129.402,50.992z M147.868,58.524c0,3.144-1.701,5.302-4.256,5.302
		c-2.749,0-4.125-2.158-4.125-5.695c0-1.835,0.588-3.732,1.571-4.65c1.048-0.98,2.163-1.243,3.798-1.243h3.012V58.524
		L147.868,58.524z M153.172,67.952V43.331c0-3.469-1.049-5.764-2.686-7.466c-1.57-1.569-3.861-2.355-6.613-2.355
		c-2.62,0-5.042,0.981-6.548,2.488c-2.03,2.03-2.62,4.584-2.62,7.203h5.305c0-1.834,0.329-2.946,1.243-3.929
		c0.655-0.655,1.442-1.114,2.62-1.114c2.619,0,3.994,1.705,3.994,4.848v5.368h-3.471c-3.534,0-5.499,0.786-7.203,2.291
		c-1.964,1.77-3.011,4.519-3.011,7.661c0,3.538,0.851,6.092,2.16,7.597c1.573,1.77,3.34,2.556,5.829,2.556
		c1.832,0,2.947-0.459,3.994-1.247c0.654-0.522,1.439-1.374,1.965-2.291v3.013H153.172L153.172,67.952z M170.459,67.952v-4.779
		c-3.471,0-5.041-1.768-5.041-5.108V21.329h-5.305v36.933c0,3.733,1.178,6.092,3.012,7.595
		C165.155,67.561,167.579,67.952,170.459,67.952L170.459,67.952z"/>
	<path d="M93.517,68.478c-3.667,0-6.22-1.441-7.989-3.405c-3.012-3.34-3.404-7.531-3.404-20.43c0-12.898,0.393-17.088,3.404-20.426
		c1.769-1.966,4.322-3.405,7.989-3.405c3.272,0,5.761,1.114,7.529,2.88c2.161,2.161,3.143,5.435,3.208,9.166h-5.566
		c-0.065-3.143-0.851-7.005-5.171-7.005c-1.834,0-3.078,0.721-3.864,1.769c-1.637,2.227-1.898,5.957-1.898,17.022
		s0.262,14.799,1.898,17.023c0.786,1.049,2.03,1.769,3.864,1.769c3.272,0,5.171-2.685,5.171-6.481V47.59h-5.171v-4.649h10.802
		v13.815C104.254,64.548,99.605,68.478,93.517,68.478L93.517,68.478z"/>
	<path d="M126.978,65.334c-1.703,2.291-4.19,3.144-7.203,3.144c-3.012,0-5.434-0.853-7.136-3.144
		c-2.096-2.686-2.488-7.465-2.488-14.34c0-6.874,0.393-11.654,2.488-14.338c1.702-2.292,4.125-3.144,7.136-3.144
		c3.012,0,5.5,0.851,7.203,3.144c2.096,2.684,2.422,7.464,2.422,14.338C129.4,57.869,129.073,62.648,126.978,65.334L126.978,65.334z
		 M122.787,39.733c-0.655-0.917-1.768-1.441-3.012-1.441c-1.244,0-2.291,0.525-2.946,1.441c-1.244,1.702-1.375,5.171-1.375,11.261
		s0.131,9.561,1.375,11.263c0.655,0.916,1.702,1.439,2.946,1.439c1.245,0,2.357-0.523,3.012-1.439
		c1.244-1.702,1.31-5.173,1.31-11.263S124.031,41.436,122.787,39.733L122.787,39.733z"/>
	<path d="M148.127,67.952v-3.013c-0.523,0.919-1.309,1.769-1.963,2.293c-1.049,0.786-2.162,1.245-3.994,1.245
		c-2.489,0-4.256-0.786-5.829-2.556c-1.309-1.505-2.16-4.059-2.16-7.595c0-3.143,1.047-5.892,3.012-7.661
		c1.703-1.505,3.667-2.291,7.202-2.291h3.471v-5.368c0-3.144-1.375-4.845-3.994-4.845c-1.178,0-1.965,0.458-2.618,1.113
		c-0.917,0.98-1.244,2.094-1.244,3.927h-5.304c0-2.618,0.59-5.171,2.62-7.201c1.505-1.505,3.928-2.488,6.546-2.488
		c2.75,0,5.041,0.786,6.613,2.358c1.637,1.702,2.684,3.993,2.684,7.463v24.618H148.127L148.127,67.952z M147.866,52.237h-3.012
		c-1.637,0-2.75,0.265-3.798,1.245c-0.982,0.916-1.571,2.815-1.571,4.648c0,3.535,1.375,5.697,4.125,5.697
		c2.555,0,4.256-2.162,4.256-5.304V52.237L147.866,52.237z"/>
	<path d="M163.125,65.858c-1.834-1.507-3.012-3.865-3.012-7.597V21.334h5.303v36.732c0,3.339,1.57,5.106,5.041,5.106v4.779
		C167.577,67.952,165.155,67.561,163.125,65.858L163.125,65.858z"/>
	<path fill="none" stroke="#F29400" stroke-width="0.4671" stroke-miterlimit="11.258" d="M196.784,56.429h-5.568
		c-0.064,1.963-0.457,3.993-1.502,5.367c-0.725,0.919-1.9,1.641-3.67,1.641c-1.834,0-3.078-0.722-3.863-1.769
		c-1.637-2.227-1.902-5.96-1.902-17.026c0-11.067,0.266-14.8,1.902-17.026c0.785-1.048,2.029-1.77,3.863-1.77
		c1.77,0,2.945,0.722,3.67,1.639c1.111,1.376,1.438,3.34,1.502,5.303h5.568c-0.066-3.798-1.178-7.136-3.34-9.232
		c-1.834-1.768-4.125-2.75-7.4-2.75c-3.666,0-6.221,1.375-7.988,3.405c-3.078,3.537-3.404,7.531-3.404,20.431
		c0,12.899,0.326,16.894,3.404,20.431c1.768,2.029,4.322,3.405,7.988,3.405c3.08,0,5.369-0.917,7.203-2.556
		C195.538,63.826,196.717,60.355,196.784,56.429L196.784,56.429z M215.905,50.992c0,6.092-0.064,9.562-1.311,11.265
		c-0.656,0.916-1.77,1.441-3.014,1.441s-2.293-0.525-2.943-1.441c-1.246-1.702-1.379-5.173-1.379-11.265
		c0-6.089,0.133-9.561,1.379-11.263c0.65-0.916,1.699-1.44,2.943-1.44s2.357,0.524,3.014,1.44
		C215.84,41.432,215.905,44.903,215.905,50.992L215.905,50.992z M221.208,50.992c0-6.875-0.328-11.657-2.424-14.34
		c-1.703-2.293-4.189-3.143-7.203-3.143c-3.012,0-5.436,0.85-7.137,3.143c-2.098,2.683-2.486,7.464-2.486,14.34
		c0,6.875,0.389,11.658,2.486,14.342c1.701,2.291,4.125,3.144,7.137,3.144c3.014,0,5.5-0.853,7.203-3.144
		C220.879,62.65,221.208,57.867,221.208,50.992L221.208,50.992z M246.288,67.952V43.005c0-3.67-0.656-5.503-2.031-7.008
		c-1.439-1.636-3.207-2.488-5.762-2.488c-1.377,0-2.621,0.392-3.666,1.047c-0.721,0.458-1.639,1.308-2.096,2.096v-2.619h-5.107
		v33.918h5.303V43.005c0-3.081,1.768-4.651,3.996-4.651c2.227,0,4.057,1.57,4.057,4.651v24.947H246.288L246.288,67.952z
		 M265.473,67.952v-4.779c-3.535,0-5.436-1.505-5.436-5.108V38.158h5.238v-4.124h-5.238v-9.301h-5.305v9.301h-3.861v4.124h3.861
		v20.104c0,3.534,1.049,6.024,2.947,7.595C259.842,67.691,262.461,67.952,265.473,67.952L265.473,67.952z M283.547,38.616v-5.107
		c-2.162,0-3.996,0.589-5.566,1.703c-0.852,0.589-1.832,1.507-2.357,2.421v-3.602h-5.109v33.92h5.307V44.837
		c0-3.864,2.555-6.221,6.154-6.221H283.547L283.547,38.616z M300.571,50.992c0,6.092-0.064,9.562-1.309,11.265
		c-0.656,0.916-1.77,1.441-3.014,1.441c-1.242,0-2.291-0.525-2.945-1.441c-1.244-1.702-1.375-5.173-1.375-11.265
		c0-6.089,0.131-9.561,1.375-11.263c0.654-0.916,1.703-1.44,2.945-1.44c1.244,0,2.357,0.524,3.014,1.44
		C300.506,41.432,300.571,44.903,300.571,50.992L300.571,50.992z M305.875,50.992c0-6.875-0.328-11.657-2.424-14.34
		c-1.701-2.293-4.189-3.143-7.203-3.143c-3.01,0-5.434,0.85-7.139,3.143c-2.094,2.683-2.486,7.464-2.486,14.34
		c0,6.875,0.393,11.658,2.486,14.342c1.705,2.291,4.129,3.144,7.139,3.144c3.014,0,5.502-0.853,7.203-3.144
		C305.547,62.65,305.875,57.867,305.875,50.992L305.875,50.992z M322.375,67.952v-4.779c-3.469,0-5.039-1.768-5.039-5.108V21.329
		h-5.307v36.933c0,3.733,1.18,6.092,3.014,7.595C317.071,67.561,319.497,67.952,322.375,67.952L322.375,67.952z"/>
	<path fill="#F29400" d="M193.245,65.922c-1.836,1.639-4.125,2.556-7.201,2.556c-3.668,0-6.223-1.378-7.988-3.405
		c-3.078-3.537-3.408-7.531-3.408-20.43c0-12.898,0.33-16.891,3.408-20.426c1.766-2.03,4.32-3.405,7.988-3.405
		c3.271,0,5.562,0.98,7.396,2.75c2.162,2.096,3.275,5.435,3.34,9.232h-5.564c-0.068-1.965-0.393-3.929-1.506-5.304
		c-0.721-0.917-1.9-1.638-3.666-1.638c-1.834,0-3.078,0.721-3.865,1.769c-1.639,2.227-1.9,5.957-1.9,17.022s0.262,14.799,1.9,17.023
		c0.787,1.049,2.031,1.769,3.865,1.769c1.766,0,2.945-0.72,3.666-1.637c1.047-1.374,1.438-3.404,1.506-5.369h5.564
		C196.715,60.357,195.536,63.828,193.245,65.922L193.245,65.922z"/>
	<path fill="#F29400" d="M218.782,65.334c-1.701,2.291-4.188,3.144-7.203,3.144c-3.01,0-5.434-0.853-7.135-3.144
		c-2.096-2.686-2.486-7.465-2.486-14.34c0-6.874,0.391-11.654,2.486-14.338c1.701-2.292,4.125-3.144,7.135-3.144
		c3.016,0,5.502,0.851,7.203,3.144c2.096,2.684,2.424,7.464,2.424,14.338C221.206,57.869,220.877,62.648,218.782,65.334
		L218.782,65.334z M214.594,39.733c-0.656-0.917-1.77-1.441-3.016-1.441c-1.242,0-2.291,0.525-2.945,1.441
		c-1.242,1.702-1.375,5.171-1.375,11.261s0.133,9.561,1.375,11.263c0.654,0.916,1.703,1.439,2.945,1.439
		c1.246,0,2.359-0.523,3.016-1.439c1.242-1.702,1.307-5.173,1.307-11.263S215.836,41.436,214.594,39.733L214.594,39.733z"/>
	<path fill="#F29400" d="M240.981,67.952V43.007c0-3.078-1.832-4.649-4.059-4.649s-3.994,1.571-3.994,4.649v24.945h-5.303V34.038
		h5.107v2.619c0.457-0.785,1.373-1.638,2.096-2.096c1.045-0.655,2.289-1.048,3.666-1.048c2.551,0,4.32,0.851,5.762,2.488
		c1.373,1.506,2.027,3.339,2.027,7.006v24.945H240.981L240.981,67.952z"/>
	<path fill="#F29400" d="M257.68,65.858c-1.898-1.572-2.947-4.061-2.947-7.597v-20.1h-3.863v-4.125h3.863v-9.299h5.305v9.299h5.238
		v4.125h-5.238v19.904c0,3.6,1.898,5.106,5.432,5.106v4.779C262.459,67.952,259.842,67.691,257.68,65.858L257.68,65.858z"/>
	<path fill="#F29400" d="M281.973,38.62c-3.602,0-6.154,2.357-6.154,6.221v23.111h-5.305V34.038h5.107v3.6
		c0.521-0.917,1.508-1.833,2.357-2.421c1.568-1.114,3.404-1.703,5.564-1.703v5.107H281.973L281.973,38.62z"/>
	<path fill="#F29400" d="M303.516,65.334c-1.703,2.291-4.191,3.144-7.201,3.144c-3.014,0-5.436-0.853-7.141-3.144
		c-2.094-2.686-2.488-7.465-2.488-14.34c0-6.874,0.395-11.654,2.488-14.338c1.705-2.292,4.127-3.144,7.141-3.144
		c3.01,0,5.498,0.851,7.201,3.144c2.094,2.684,2.422,7.464,2.422,14.338C305.938,57.869,305.61,62.648,303.516,65.334
		L303.516,65.334z M299.325,39.733c-0.656-0.917-1.77-1.441-3.01-1.441c-1.246,0-2.291,0.525-2.947,1.441
		c-1.246,1.702-1.375,5.171-1.375,11.261s0.129,9.561,1.375,11.263c0.656,0.916,1.701,1.439,2.947,1.439
		c1.24,0,2.354-0.523,3.01-1.439c1.246-1.702,1.311-5.173,1.311-11.263S300.571,41.436,299.325,39.733L299.325,39.733z"/>
	<path fill="#F29400" d="M315.106,65.858c-1.832-1.507-3.012-3.865-3.012-7.597V21.334h5.305v36.732
		c0,3.339,1.572,5.106,5.041,5.106v4.779C319.557,67.952,317.137,67.561,315.106,65.858L315.106,65.858z"/>
</g>
</svg>
