<?xml version="1.0" encoding="UTF-8" standalone="no"?>
<!-- Created with Inkscape (http://www.inkscape.org/) -->

<svg
   xmlns:dc="http://purl.org/dc/elements/1.1/"
   xmlns:cc="http://creativecommons.org/ns#"
   xmlns:rdf="http://www.w3.org/1999/02/22-rdf-syntax-ns#"
   xmlns:svg="http://www.w3.org/2000/svg"
   xmlns="http://www.w3.org/2000/svg"
   xmlns:sodipodi="http://sodipodi.sourceforge.net/DTD/sodipodi-0.dtd"
   xmlns:inkscape="http://www.inkscape.org/namespaces/inkscape"
   width="600"
   height="122.211"
   viewBox="0 0 158.75 32.334993"
   version="1.1"
   id="svg231"
   inkscape:version="0.92.3 (2405546, 2018-03-11)"
   sodipodi:docname="team4-logo.svg">
  <defs
     id="defs225" />
  <sodipodi:namedview
     id="base"
     pagecolor="#ffffff"
     bordercolor="#666666"
     borderopacity="1.0"
     inkscape:pageopacity="0.0"
     inkscape:pageshadow="2"
     inkscape:zoom="1.4142136"
     inkscape:cx="193.36493"
     inkscape:cy="5.7520163"
     inkscape:document-units="px"
     inkscape:current-layer="layer1"
     showgrid="false"
     showguides="false"
     inkscape:window-width="1920"
     inkscape:window-height="1017"
     inkscape:window-x="1432"
     inkscape:window-y="-8"
     inkscape:window-maximized="1"
     units="px"
     inkscape:pagecheckerboard="false" />
  <metadata
     id="metadata228">
    <rdf:RDF>
      <cc:Work
         rdf:about="">
        <dc:format>image/svg+xml</dc:format>
        <dc:type
           rdf:resource="http://purl.org/dc/dcmitype/StillImage" />
        <dc:title></dc:title>
      </cc:Work>
    </rdf:RDF>
  </metadata>
  <g
     inkscape:label="Layer 1"
     inkscape:groupmode="layer"
     id="layer1"
     transform="translate(0,-264.66501)">
    <g
       id="g1257">
      <g
         transform="matrix(25.719278,0,0,25.719278,-476.41453,-1715.2859)"
         id="text1132"
         style="font-style:normal;font-variant:normal;font-weight:normal;font-stretch:normal;font-size:1.69576752px;line-height:0.5;font-family:Arial;-inkscape-font-specification:'Arial, Normal';font-variant-ligatures:normal;font-variant-caps:normal;font-variant-numeric:normal;font-feature-settings:normal;text-align:start;letter-spacing:0px;word-spacing:0px;writing-mode:lr-tb;text-anchor:start;fill:#000000;fill-opacity:1;stroke:none;stroke-width:0.07948881"
         aria-label="T">
        <path
           sodipodi:nodetypes="ccccccccc"
           inkscape:connector-curvature="0"
           id="path1150"
           style="font-style:normal;font-variant:normal;font-weight:normal;font-stretch:normal;font-size:1.69576752px;font-family:Arial;-inkscape-font-specification:'Arial, Normal';font-variant-ligatures:normal;font-variant-caps:normal;font-variant-numeric:normal;font-feature-settings:normal;text-align:start;writing-mode:lr-tb;text-anchor:start;fill:#000000;stroke-width:0.07948881"
           d="m 20.500905,78.21167 -0.0038,-1.127609 -0.423676,9.5e-4 -9.5e-4,-0.07391 0.937454,-0.0019 v 0.07581 l -0.425332,-0.0019 -9.5e-4,1.129509 z" />
      </g>
      <g
         transform="matrix(23.636663,0,0,23.636663,-430.67281,-1571.7264)"
         id="text1105"
         style="font-style:normal;font-variant:normal;font-weight:normal;font-stretch:normal;font-size:1.92456341px;line-height:0.5;font-family:Arial;-inkscape-font-specification:'Arial, Normal';font-variant-ligatures:normal;font-variant-caps:normal;font-variant-numeric:normal;font-feature-settings:normal;text-align:start;letter-spacing:0px;word-spacing:0px;writing-mode:lr-tb;text-anchor:start;fill:#000000;fill-opacity:1;stroke:none;stroke-width:0.09021439"
         aria-label="4">
        <path
           sodipodi:nodetypes="cccccccccccccccc"
           inkscape:connector-curvature="0"
           id="path1138"
           style="font-style:normal;font-variant:normal;font-weight:normal;font-stretch:normal;font-size:1.92456341px;font-family:Arial;-inkscape-font-specification:'Arial, Normal';font-variant-ligatures:normal;font-variant-caps:normal;font-variant-numeric:normal;font-feature-settings:normal;text-align:start;writing-mode:lr-tb;text-anchor:start;fill:#000000;stroke-width:0.09021439"
           d="m 24.560862,79.037621 -0.0044,-0.318033 -0.624538,-0.0089 0.0015,-0.137263 0.63045,-0.880931 0.18834,0.003 -0.003,0.873548 0.187512,0.0029 7.7e-5,0.143154 -0.184589,0.003 0.0015,0.320986 z m -0.0015,-0.476041 0.0015,-0.641832 -0.428382,0.644785 z" />
      </g>
      <g
         transform="matrix(23.636663,0,0,23.636663,-430.67281,-1571.7264)"
         id="text1101"
         style="font-style:normal;font-variant:normal;font-weight:normal;font-stretch:normal;font-size:1.84650111px;line-height:0.5;font-family:Arial;-inkscape-font-specification:'Arial, Normal';font-variant-ligatures:normal;font-variant-caps:normal;font-variant-numeric:normal;font-feature-settings:normal;text-align:start;letter-spacing:0px;word-spacing:0px;writing-mode:lr-tb;text-anchor:start;fill:#000000;fill-opacity:1;stroke:none;stroke-width:0.0865542"
         aria-label="m">
        <path
           sodipodi:nodetypes="ccccaaacaaccccaaaaccccaaaaccc"
           inkscape:connector-curvature="0"
           id="path1141"
           style="font-style:normal;font-variant:normal;font-weight:normal;font-stretch:normal;font-size:1.84650111px;font-family:Arial;-inkscape-font-specification:'Arial, Normal';font-variant-ligatures:normal;font-variant-caps:normal;font-variant-numeric:normal;font-feature-settings:normal;text-align:start;writing-mode:lr-tb;text-anchor:start;fill:#000000;stroke-width:0.0865542"
           d="m 22.680334,79.028218 -0.0041,-0.944076 0.08005,0.001 0.0083,0.143642 c 0.03005,-0.04689 0.09052,-0.104064 0.15092,-0.133372 0.05005,-0.02429 0.108683,-0.03334 0.164204,-0.02984 0.05457,0.0034 0.111357,0.01841 0.156441,0.04935 0.04524,0.03105 0.08404,0.0758 0.102671,0.128688 0.07574,-0.1118 0.172954,-0.162635 0.283327,-0.175968 0.07914,-0.0096 0.169683,0.01914 0.22736,0.07417 0.05989,0.05714 0.08818,0.122803 0.08801,0.232199 l -3e-4,0.653904 -0.07767,-10e-4 -7.03e-4,-0.616341 c 0,-0.06492 6.24e-4,-0.108539 -0.0214,-0.156286 -0.01647,-0.0357 -0.04506,-0.06735 -0.0785,-0.08802 -0.03954,-0.02444 -0.08827,-0.04049 -0.134577,-0.03648 -0.07247,0.0063 -0.15021,0.03731 -0.197671,0.09243 -0.05736,0.06661 -0.07462,0.15425 -0.07499,0.252824 l -0.0021,0.552161 -0.07651,0.001 -0.0072,-0.620046 c -8.42e-4,-0.07212 -0.004,-0.145718 -0.0469,-0.198463 -0.0371,-0.04563 -0.101062,-0.07194 -0.159804,-0.07477 -0.05868,-0.0028 -0.118809,0.0241 -0.166077,0.05898 -0.04312,0.03182 -0.07443,0.07988 -0.09607,0.128905 -0.02835,0.0642 -0.03912,0.119915 -0.03998,0.206714 l 0.0019,0.49661 z" />
      </g>
      <g
         transform="matrix(23.636663,0,0,23.636663,-430.67281,-1571.7264)"
         id="text1097"
         style="font-style:normal;font-variant:normal;font-weight:normal;font-stretch:normal;font-size:1.81773174px;line-height:0.5;font-family:Arial;-inkscape-font-specification:'Arial, Normal';font-variant-ligatures:normal;font-variant-caps:normal;font-variant-numeric:normal;font-feature-settings:normal;text-align:start;letter-spacing:0px;word-spacing:0px;writing-mode:lr-tb;text-anchor:start;fill:#000000;fill-opacity:1;stroke:none;stroke-width:0.08520522"
         aria-label="a">
        <path
           sodipodi:nodetypes="aaaaacaasaaaaaccaaaaaaaacccaasacaaaaaaaaacc"
           inkscape:connector-curvature="0"
           id="path1144"
           style="font-style:normal;font-variant:normal;font-weight:normal;font-stretch:normal;font-size:1.81773174px;font-family:Arial;-inkscape-font-specification:'Arial, Normal';font-variant-ligatures:normal;font-variant-caps:normal;font-variant-numeric:normal;font-feature-settings:normal;text-align:start;writing-mode:lr-tb;text-anchor:start;fill:#000000;stroke-width:0.08520522"
           d="m 22.380836,78.882515 c -0.04186,0.06061 -0.104847,0.107812 -0.1713,0.139579 -0.05275,0.02521 -0.113211,0.0391 -0.171604,0.03624 -0.08336,-0.0041 -0.176879,-0.01943 -0.238755,-0.07544 -0.05227,-0.04732 -0.07766,-0.124105 -0.08343,-0.194377 -0.0035,-0.04312 0.01036,-0.08817 0.03107,-0.126034 0.0213,-0.03846 0.04928,-0.06787 0.08254,-0.09231 0.03404,-0.02501 0.07467,-0.04113 0.115384,-0.05237 0.04492,-0.0124 0.06838,-0.0095 0.138909,-0.01569 0.07112,-0.0062 0.208892,0.0044 0.282841,-0.0571 0.01409,-0.01172 0.01901,-0.03275 0.02052,-0.05101 0.005,-0.06016 5.81e-4,-0.131323 -0.03907,-0.176847 -0.05166,-0.05931 -0.142607,-0.07986 -0.221226,-0.08204 -0.07189,-0.002 -0.152755,0.01551 -0.206136,0.06371 -0.04802,0.04335 -0.0639,0.08385 -0.07589,0.178622 l -0.07559,0.0035 c 0.008,-0.07099 0.01529,-0.122492 0.04738,-0.172906 0.03024,-0.04751 0.07749,-0.08605 0.12872,-0.109439 0.06752,-0.03083 0.145915,-0.03604 0.220104,-0.03373 0.0623,0.0019 0.126407,0.01304 0.182717,0.03977 0.02877,0.01366 0.05546,0.03416 0.07477,0.05949 0.02289,0.03003 0.03628,0.06731 0.04453,0.104149 0.01172,0.05233 0.0048,0.107157 0.0059,0.160772 0.0015,0.07134 2.74e-4,0.142702 10e-4,0.214049 0.001,0.09995 -0.0019,0.260171 0.0047,0.299816 0.0257,0.02872 0.101808,0.0166 0.101808,0.0166 l 5.7e-4,0.06408 c 0,0 -0.04691,0.0079 -0.07,0.0043 -0.03552,-0.0056 -0.07629,-0.0127 -0.100447,-0.03933 -0.02469,-0.02722 -0.0042,-0.0884 -0.03001,-0.106069 -4e-6,-3e-6 -2e-6,1.1e-5 -5e-6,1.5e-5 z m 0.0022,-0.359902 c -0.05799,0.02367 -0.176731,0.02706 -0.265078,0.04071 -0.053,0.0082 -0.108294,0.0072 -0.158985,0.02471 -0.04106,0.01418 -0.08585,0.03038 -0.113662,0.06374 -0.02822,0.03384 -0.04656,0.08114 -0.04286,0.125049 0.0051,0.0606 0.03858,0.123747 0.08722,0.160251 0.0506,0.03797 0.122198,0.04292 0.185418,0.04053 0.05961,-0.0023 0.121119,-0.01927 0.171435,-0.05131 0.04683,-0.02982 0.08687,-0.07428 0.110788,-0.124382 0.02641,-0.05532 0.02617,-0.120274 0.02987,-0.181465 0.002,-0.03258 -0.0041,-0.09783 -0.0041,-0.09783 z" />
      </g>
      <g
         transform="matrix(23.636663,0,0,23.636663,-430.67281,-1571.7264)"
         id="text1093"
         style="font-style:normal;font-variant:normal;font-weight:normal;font-stretch:normal;font-size:1.83757758px;line-height:0.5;font-family:Arial;-inkscape-font-specification:'Arial, Normal';font-variant-ligatures:normal;font-variant-caps:normal;font-variant-numeric:normal;font-feature-settings:normal;text-align:start;letter-spacing:0px;word-spacing:0px;writing-mode:lr-tb;text-anchor:start;fill:#000000;fill-opacity:1;stroke:none;stroke-width:0.08613583;stroke-opacity:1"
         aria-label="e">
        <path
           sodipodi:nodetypes="ccaaaaaaasccaaaccccaaacc"
           inkscape:connector-curvature="0"
           id="path1147"
           style="font-style:normal;font-variant:normal;font-weight:normal;font-stretch:normal;font-size:1.83757758px;font-family:Arial;-inkscape-font-specification:'Arial, Normal';font-variant-ligatures:normal;font-variant-caps:normal;font-variant-numeric:normal;font-feature-settings:normal;text-align:start;writing-mode:lr-tb;text-anchor:start;fill:#000000;fill-opacity:1;stroke:none;stroke-width:0.08613583;stroke-opacity:1"
           d="m 21.525661,78.710398 0.07594,0.001 c -0.01599,0.102667 -0.06258,0.191558 -0.134885,0.254911 -0.06796,0.05954 -0.163821,0.09558 -0.254161,0.09419 -0.116443,-0.0018 -0.243586,-0.0469 -0.323716,-0.131408 -0.08648,-0.09121 -0.122244,-0.230738 -0.12306,-0.356426 -8.46e-4,-0.130321 0.0349,-0.274961 0.122787,-0.371191 0.07721,-0.08454 0.20052,-0.136884 0.315016,-0.136927 0.111574,-4.2e-5 0.233312,0.04949 0.307077,0.133203 0.07762,0.08808 0.09839,0.180856 0.09839,0.338174 0,0.0096 -2.99e-4,0.02393 -8.97e-4,0.04307 l -0.751967,0.001 c 0.006,0.104679 0.02928,0.213935 0.0971,0.290073 0.06194,0.06953 0.15991,0.114394 0.252933,0.11859 0.07276,0.0033 0.149878,-0.02741 0.20538,-0.07457 0.05931,-0.05039 0.09884,-0.132431 0.114069,-0.203721 z m -0.665669,-0.210458 0.669531,-0.0021 c -0.0072,-0.08016 -0.02528,-0.168828 -0.07755,-0.230991 -0.06067,-0.07214 -0.154445,-0.131822 -0.248664,-0.134661 -0.08565,-0.0026 -0.173438,0.04698 -0.233001,0.108576 -0.06526,0.06749 -0.104935,0.175988 -0.110322,0.259135 z" />
      </g>
      <path
         inkscape:connector-curvature="0"
         id="path1153"
         d="m 18.952679,295.48542 c -0.0018,-0.3227 -0.05754,-0.82082 -0.123827,-1.10625 -0.07598,-0.32708 -0.06992,-0.55034 0.01626,-0.6035 0.07573,-0.0438 0.100312,-0.30894 0.05503,-0.58661 -0.04503,-0.2758 -0.07786,-0.59537 -0.07273,-0.70919 0.04503,-0.98905 -0.01563,-1.85771 -0.13821,-1.98016 -0.225577,-0.22577 -0.183051,-2.06678 0.05816,-2.52982 0.217447,-0.41713 0.28036,-1.314 0.104502,-1.48985 -0.128017,-0.12821 -0.187429,-0.66698 -0.187929,-1.70437 -6.57e-4,-1.42557 -0.0038,-1.4165 0.4858,-1.4165 0.242775,0 0.509003,0.0675 0.591679,0.15009 0.108192,0.10819 0.176234,0.10819 0.243088,0 0.130643,-0.21138 0.723653,-0.18761 0.808093,0.0313 0.05378,0.14071 0.637063,0.18949 2.529702,0.21076 1.94464,0.025 2.506693,0.0707 2.684797,0.23201 0.129893,0.11758 0.494681,0.20388 0.861614,0.20388 0.591491,0 0.639439,0.025 0.680083,0.38024 0.03815,0.33208 0.111006,0.38523 0.575481,0.42401 0.323263,0.025 0.621322,-0.0375 0.760058,-0.15635 0.125577,-0.11007 0.368227,-0.24265 0.539208,-0.29456 0.170981,-0.05 0.310942,-0.15259 0.310942,-0.22388 0,-0.0707 0.09525,-0.12883 0.211631,-0.12883 0.116385,0 0.247403,-0.0932 0.29118,-0.20701 0.267666,-0.69755 0.32639,0.37086 0.32639,5.94224 v 6.14955 h -5.804077 -5.80407 z"
         style="opacity:1;fill:#000000;fill-opacity:1;stroke:#000000;stroke-width:0.04727336;stroke-miterlimit:4;stroke-dasharray:none;stroke-opacity:1" />
      <path
         inkscape:connector-curvature="0"
         id="path1155"
         d="m 0.02363698,290.68326 v -5.38952 h 0.47554405 c 0.26153672,0 0.51394277,-0.0625 0.56090937,-0.13821 0.046904,-0.0757 0.2702296,-0.13821 0.4961818,-0.13821 0.2376469,0 0.4442747,-0.0876 0.4903031,-0.207 0.043777,-0.11382 0.23033,-0.20701 0.4145689,-0.20701 0.1843014,0 0.3708543,-0.0932 0.4145688,-0.20763 0.055659,-0.14446 0.2810488,-0.207 0.7458487,-0.207 0.4080023,0 0.7466554,-0.08 0.8735902,-0.207 0.1419002,-0.14196 0.491679,-0.207 1.1085417,-0.207 0.6736228,0 0.9317886,-0.0563 1.0221445,-0.21576 0.1096303,-0.19575 0.1375851,-0.19575 0.3001856,0 0.2264526,0.27267 0.8266424,0.28017 1.0284547,0.0125 0.1222631,-0.16198 0.5743552,-0.20638 2.2263146,-0.21701 1.140086,-0.006 2.183862,-0.006 2.319503,-0.004 0.231205,0.006 0.243025,0.21513 0.188741,3.29166 -0.03189,1.80512 -0.102,3.53906 -0.155971,3.85319 -0.06285,0.36586 -0.04378,0.60475 0.05316,0.66454 0.189304,0.11695 0.200123,1.27429 0.01313,1.38998 -0.179924,0.11132 -0.179924,1.40888 0,1.52013 0.169605,0.10507 0.185177,0.89824 0.01751,0.89824 -0.06629,0 -0.160287,0.24891 -0.208942,0.55285 l -0.08837,0.55284 H 6.1715572 0.02363698 Z"
         style="opacity:1;fill:#000000;fill-opacity:1;stroke:#000000;stroke-width:0.04727336;stroke-miterlimit:4;stroke-dasharray:none;stroke-opacity:1" />
      <path
         inkscape:connector-curvature="0"
         id="path1157"
         d="m 24.34547,278.17684 c -0.196622,-0.23702 -0.906436,-0.27955 -1.040587,-0.0625 -0.06129,0.0994 -0.149593,0.0951 -0.280736,-0.0125 -0.10519,-0.0869 -0.519384,-0.14259 -0.920495,-0.1232 -0.401123,0.0188 -1.370578,0.025 -2.154382,0.0125 l -1.425093,-0.025 0.06129,-1.4856 c 0.03377,-0.81707 0.107692,-1.69274 0.164164,-1.94596 0.06629,-0.29705 0.0394,-0.57848 -0.07617,-0.79455 -0.147341,-0.27517 -0.14584,-0.39587 0.0088,-0.68467 0.14978,-0.27955 0.15447,-0.44153 0.02314,-0.80437 -0.106316,-0.29394 -0.164164,-1.43627 -0.164164,-3.24263 0,-1.78254 -0.05003,-2.7886 -0.139336,-2.7886 -0.08261,0 -0.06904,-0.11257 0.03315,-0.27643 0.168229,-0.26954 0.322262,-0.27642 6.066846,-0.27642 5.247294,0 5.90345,0.025 5.978121,0.21889 0.04628,0.12007 0.08193,2.99635 0.07949,6.39139 -0.0037,5.1625 -0.0344,6.13323 -0.187992,5.93098 -0.237021,-0.31207 -1.189554,-0.34021 -1.189554,-0.0375 0,0.11382 -0.117698,0.20762 -0.261599,0.20762 -0.143902,0 -0.297372,-0.0932 -0.341149,-0.20762 -0.107816,-0.2808 -0.457282,-0.26204 -0.62992,0.0375 -0.134146,0.23014 -0.141088,0.23014 -0.14509,0 -0.0037,-0.21201 -0.156659,-0.24203 -1.238059,-0.24203 -0.912508,0 -1.287847,0.0563 -1.441148,0.20701 -0.114008,0.11382 -0.297371,0.20763 -0.407502,0.20763 -0.11013,0 -0.277671,-0.0932 -0.372292,-0.20763 z"
         style="opacity:1;fill:#000000;fill-opacity:1;stroke:#000000;stroke-width:0.04727336;stroke-miterlimit:4;stroke-dasharray:none;stroke-opacity:1" />
      <path
         inkscape:connector-curvature="0"
         id="path1159"
         d="m 0.03454372,268.4891 -0.01063157,-2.63988 1.05729125,-0.0894 c 0.5814846,-0.05 1.7300072,-0.0894 2.5522156,-0.0894 1.6698701,0 1.7372493,0.0625 0.8079559,0.75202 -0.3014364,0.22389 -0.5480889,0.48655 -0.5480889,0.58474 0,0.0982 -0.7462364,0.92676 -1.6583067,1.84183 -0.9120702,0.91506 -1.65830661,1.72469 -1.65830661,1.79917 0,0.0744 -0.088117,0.13571 -0.19574603,0.13571 -0.10769159,0 -0.22714045,0.0775 -0.26547666,0.17261 -0.03814859,0.0951 -0.07460863,-1.01526 -0.08061234,-2.46722 z"
         style="opacity:1;fill:#000000;fill-opacity:1;stroke:#000000;stroke-width:0.04727336;stroke-miterlimit:4;stroke-dasharray:none;stroke-opacity:1" />
      <path
         inkscape:connector-curvature="0"
         id="path1161"
         d="m 3.0638669,277.91286 c 0,-0.0313 0.342024,-0.41275 0.7600574,-0.84771 0.4180085,-0.43527 0.7600575,-0.86422 0.7600575,-0.95378 0,-0.0894 0.1865529,-0.30081 0.4145689,-0.46904 0.2280159,-0.16885 0.4145688,-0.42151 0.4145688,-0.56159 0,-0.14009 0.093308,-0.33271 0.2073157,-0.42714 0.114008,-0.0944 0.2073157,-0.25766 0.2073157,-0.36273 0,-0.10506 0.070231,-0.19011 0.156034,-0.19011 0.208754,0 1.4942489,-1.26835 1.4987517,-1.47873 0.00195,-0.0913 0.0813,-0.21576 0.1762965,-0.27642 0.1812371,-0.1157 0.7946038,-0.94365 0.7946038,-1.07229 0,-0.11507 0.5390834,-0.62745 0.6601645,-0.62745 0.1920563,0 0.9981426,-0.80831 0.9981426,-1.00087 0,-0.10319 0.247528,-0.33958 0.550027,-0.52595 0.3025,-0.18636 0.58924,-0.46279 0.637107,-0.61538 0.04815,-0.15197 0.275858,-0.47529 0.506625,-0.71838 l 0.419572,-0.44215 0.256159,0.32583 c 0.301436,0.38336 0.315695,0.53595 0.08474,0.90574 -0.132332,0.21201 -0.134396,0.33396 -0.0088,0.53471 0.113821,0.18261 0.168042,1.47635 0.180862,4.31855 0.01001,2.232 0.01438,4.16707 0.0088,4.30009 -0.01001,0.25829 -0.484987,0.34021 -0.628113,0.10882 -0.109255,-0.17699 -4.0418867,-0.17824 -4.151098,-0.002 -0.109255,0.17699 -0.8554477,0.17386 -0.9651905,-0.003 -0.046904,-0.0763 -0.4200723,-0.13821 -0.8291565,-0.13821 -0.4090654,0 -0.7821774,0.0625 -0.8291502,0.13821 -0.079299,0.12821 -2.2801724,0.207 -2.2801724,0.0813 z"
         style="opacity:1;fill:#db1213;fill-opacity:1;stroke:#db1213;stroke-width:0.23636664;stroke-miterlimit:4;stroke-dasharray:none;stroke-opacity:1" />
    </g>
  </g>
</svg>
